<svg width="42" height="42" viewBox="0 0 42 42" fill="none" xmlns="http://www.w3.org/2000/svg">
<circle cx="21" cy="21" r="21" fill="#999999"/>
<path d="M18 18.75C18 18.5511 18.079 18.3603 18.2197 18.2197C18.3603 18.079 18.5511 18 18.75 18H24.75C24.9489 18 25.1397 18.079 25.2803 18.2197C25.421 18.3603 25.5 18.5511 25.5 18.75C25.5 18.9489 25.421 19.1397 25.2803 19.2803C25.1397 19.421 24.9489 19.5 24.75 19.5H18.75C18.5511 19.5 18.3603 19.421 18.2197 19.2803C18.079 19.1397 18 18.9489 18 18.75ZM18.75 22.5H24.75C24.9489 22.5 25.1397 22.421 25.2803 22.2803C25.421 22.1397 25.5 21.9489 25.5 21.75C25.5 21.5511 25.421 21.3603 25.2803 21.2197C25.1397 21.079 24.9489 21 24.75 21H18.75C18.5511 21 18.3603 21.079 18.2197 21.2197C18.079 21.3603 18 21.5511 18 21.75C18 21.9489 18.079 22.1397 18.2197 22.2803C18.3603 22.421 18.5511 22.5 18.75 22.5ZM30.75 27C30.75 27.7956 30.4339 28.5587 29.8713 29.1213C29.3087 29.6839 28.5456 30 27.75 30H17.25C16.4544 30 15.6913 29.6839 15.1287 29.1213C14.5661 28.5587 14.25 27.7956 14.25 27V15C14.25 14.6022 14.092 14.2206 13.8107 13.9393C13.5294 13.658 13.1478 13.5 12.75 13.5C12.3522 13.5 11.9706 13.658 11.6893 13.9393C11.408 14.2206 11.25 14.6022 11.25 15C11.25 15.5381 11.7028 15.9019 11.7075 15.9056C11.8316 16.0011 11.9227 16.1331 11.968 16.2831C12.0133 16.433 12.0106 16.5933 11.9601 16.7416C11.9097 16.8899 11.814 17.0187 11.6867 17.1098C11.5593 17.201 11.4066 17.25 11.25 17.25C11.0878 17.2503 10.93 17.1972 10.8009 17.0991C10.6922 17.0194 9.75 16.2759 9.75 15C9.75 14.2044 10.0661 13.4413 10.6287 12.8787C11.1913 12.3161 11.9544 12 12.75 12H25.5C26.2956 12 27.0587 12.3161 27.6213 12.8787C28.1839 13.4413 28.5 14.2044 28.5 15V24.75H29.25C29.4123 24.75 29.5702 24.8026 29.7 24.9C29.8125 24.9806 30.75 25.7241 30.75 27ZM18.0244 25.2638C18.0756 25.1125 18.1734 24.9813 18.3038 24.889C18.4341 24.7968 18.5903 24.7481 18.75 24.75H27V15C27 14.6022 26.842 14.2206 26.5607 13.9393C26.2794 13.658 25.8978 13.5 25.5 13.5H15.3459C15.6112 13.9553 15.7506 14.473 15.75 15V27C15.75 27.3978 15.908 27.7794 16.1893 28.0607C16.4706 28.342 16.8522 28.5 17.25 28.5C17.6478 28.5 18.0294 28.342 18.3107 28.0607C18.592 27.7794 18.75 27.3978 18.75 27C18.75 26.4619 18.2972 26.0981 18.2925 26.0944C18.1647 26.0029 18.0696 25.8729 18.0214 25.7233C17.9731 25.5738 17.9741 25.4127 18.0244 25.2638ZM29.25 27C29.2406 26.7221 29.1334 26.4565 28.9472 26.25H20.1347C20.2101 26.4929 20.2483 26.7457 20.2481 27C20.2488 27.5267 20.1101 28.0443 19.8459 28.5H27.75C28.1478 28.5 28.5294 28.342 28.8107 28.0607C29.092 27.7794 29.25 27.3978 29.25 27Z" fill="white"/>
</svg>
