<svg width="42" height="42" viewBox="0 0 42 42" fill="none" xmlns="http://www.w3.org/2000/svg">
<circle cx="21" cy="21" r="21" fill="#999999"/>
<path d="M29.25 12.75H12.75C12.3522 12.75 11.9706 12.908 11.6893 13.1893C11.408 13.4706 11.25 13.8522 11.25 14.25V27.75C11.25 28.1478 11.408 28.5294 11.6893 28.8107C11.9706 29.092 12.3522 29.25 12.75 29.25H14.0053C14.1473 29.25 14.2863 29.2098 14.4063 29.134C14.5263 29.0581 14.6223 28.9498 14.6831 28.8216C15.0478 28.0516 15.6236 27.4009 16.3436 26.9453C17.0635 26.4897 17.898 26.2478 18.75 26.2478C19.602 26.2478 20.4365 26.4897 21.1564 26.9453C21.8764 27.4009 22.4522 28.0516 22.8169 28.8216C22.8777 28.9498 22.9737 29.0581 23.0937 29.134C23.2137 29.2098 23.3527 29.25 23.4947 29.25H29.25C29.6478 29.25 30.0294 29.092 30.3107 28.8107C30.592 28.5294 30.75 28.1478 30.75 27.75V14.25C30.75 13.8522 30.592 13.4706 30.3107 13.1893C30.0294 12.908 29.6478 12.75 29.25 12.75ZM16.5 22.5C16.5 22.055 16.632 21.62 16.8792 21.25C17.1264 20.88 17.4778 20.5916 17.889 20.4213C18.3001 20.251 18.7525 20.2064 19.189 20.2932C19.6254 20.38 20.0263 20.5943 20.341 20.909C20.6557 21.2237 20.87 21.6246 20.9568 22.061C21.0436 22.4975 20.999 22.9499 20.8287 23.361C20.6584 23.7722 20.37 24.1236 20 24.3708C19.63 24.618 19.195 24.75 18.75 24.75C18.1533 24.75 17.581 24.5129 17.159 24.091C16.7371 23.669 16.5 23.0967 16.5 22.5ZM29.25 27.75H23.9466C23.3203 26.6732 22.3762 25.8165 21.2438 25.2975C21.8115 24.792 22.2122 24.1258 22.3927 23.3874C22.5732 22.649 22.5251 21.8731 22.2546 21.1627C21.9842 20.4522 21.5042 19.8408 20.8783 19.4093C20.2524 18.9779 19.5102 18.7468 18.75 18.7468C17.9898 18.7468 17.2476 18.9779 16.6217 19.4093C15.9958 19.8408 15.5158 20.4522 15.2454 21.1627C14.9749 21.8731 14.9268 22.649 15.1073 23.3874C15.2878 24.1258 15.6885 24.792 16.2563 25.2975C15.1238 25.8165 14.1797 26.6732 13.5534 27.75H12.75V14.25H29.25V27.75ZM14.25 18V16.5C14.25 16.3011 14.329 16.1103 14.4697 15.9697C14.6103 15.829 14.8011 15.75 15 15.75H27C27.1989 15.75 27.3897 15.829 27.5303 15.9697C27.671 16.1103 27.75 16.3011 27.75 16.5V25.5C27.75 25.6989 27.671 25.8897 27.5303 26.0303C27.3897 26.171 27.1989 26.25 27 26.25H25.5C25.3011 26.25 25.1103 26.171 24.9697 26.0303C24.829 25.8897 24.75 25.6989 24.75 25.5C24.75 25.3011 24.829 25.1103 24.9697 24.9697C25.1103 24.829 25.3011 24.75 25.5 24.75H26.25V17.25H15.75V18C15.75 18.1989 15.671 18.3897 15.5303 18.5303C15.3897 18.671 15.1989 18.75 15 18.75C14.8011 18.75 14.6103 18.671 14.4697 18.5303C14.329 18.3897 14.25 18.1989 14.25 18Z" fill="white"/>
</svg>
